<svg width="16" height="16" viewBox="0 0 16 16" fill="none" xmlns="http://www.w3.org/2000/svg">
<path d="M8 16C10.1217 16 12.1566 15.1571 13.6569 13.6569C15.1571 12.1566 16 10.1217 16 8C16 5.87827 15.1571 3.84344 13.6569 2.34315C12.1566 0.842855 10.1217 0 8 0C5.87827 0 3.84344 0.842855 2.34315 2.34315C0.842855 3.84344 0 5.87827 0 8C0 10.1217 0.842855 12.1566 2.34315 13.6569C3.84344 15.1571 5.87827 16 8 16Z" fill="#005AAA"/>
<path d="M4.64689 4.64689C4.69334 4.60033 4.74851 4.56339 4.80926 4.53818C4.87001 4.51297 4.93513 4.5 5.00089 4.5C5.06666 4.5 5.13178 4.51297 5.19253 4.53818C5.25327 4.56339 5.30845 4.60033 5.35489 4.64689L8.00089 7.29389L10.6469 4.64689C10.6934 4.60041 10.7486 4.56353 10.8093 4.53837C10.87 4.51321 10.9351 4.50026 11.0009 4.50026C11.0666 4.50026 11.1317 4.51321 11.1925 4.53837C11.2532 4.56353 11.3084 4.60041 11.3549 4.64689C11.4014 4.69338 11.4383 4.74857 11.4634 4.80931C11.4886 4.87005 11.5015 4.93515 11.5015 5.00089C11.5015 5.06664 11.4886 5.13174 11.4634 5.19248C11.4383 5.25322 11.4014 5.30841 11.3549 5.35489L8.70789 8.00089L11.3549 10.6469C11.4014 10.6934 11.4383 10.7486 11.4634 10.8093C11.4886 10.87 11.5015 10.9351 11.5015 11.0009C11.5015 11.0666 11.4886 11.1317 11.4634 11.1925C11.4383 11.2532 11.4014 11.3084 11.3549 11.3549C11.3084 11.4014 11.2532 11.4383 11.1925 11.4634C11.1317 11.4886 11.0666 11.5015 11.0009 11.5015C10.9351 11.5015 10.87 11.4886 10.8093 11.4634C10.7486 11.4383 10.6934 11.4014 10.6469 11.3549L8.00089 8.70789L5.35489 11.3549C5.30841 11.4014 5.25322 11.4383 5.19248 11.4634C5.13174 11.4886 5.06664 11.5015 5.00089 11.5015C4.93515 11.5015 4.87005 11.4886 4.80931 11.4634C4.74857 11.4383 4.69338 11.4014 4.64689 11.3549C4.60041 11.3084 4.56353 11.2532 4.53837 11.1925C4.51321 11.1317 4.50026 11.0666 4.50026 11.0009C4.50026 10.9351 4.51321 10.87 4.53837 10.8093C4.56353 10.7486 4.60041 10.6934 4.64689 10.6469L7.29389 8.00089L4.64689 5.35489C4.60033 5.30845 4.56339 5.25327 4.53818 5.19253C4.51297 5.13178 4.5 5.06666 4.5 5.00089C4.5 4.93513 4.51297 4.87001 4.53818 4.80926C4.56339 4.74851 4.60033 4.69334 4.64689 4.64689Z" fill="white"/>
</svg>
