<svg width="18" height="17" viewBox="0 0 18 17" fill="none" xmlns="http://www.w3.org/2000/svg">
<path fill-rule="evenodd" clip-rule="evenodd" d="M12.9375 1.13579C12.7159 1.13579 12.4965 1.17975 12.2917 1.26516C12.087 1.35056 11.901 1.47574 11.7443 1.63355C11.5876 1.79135 11.4633 1.9787 11.3785 2.18488C11.2936 2.39107 11.25 2.61205 11.25 2.83523C11.25 3.0584 11.2936 3.27939 11.3785 3.48557C11.4633 3.69176 11.5876 3.8791 11.7443 4.03691C11.901 4.19471 12.087 4.31989 12.2917 4.4053C12.4965 4.4907 12.7159 4.53466 12.9375 4.53466C13.3851 4.53466 13.8143 4.35561 14.1307 4.03691C14.4472 3.7182 14.625 3.28594 14.625 2.83523C14.625 2.38451 14.4472 1.95225 14.1307 1.63355C13.8143 1.31484 13.3851 1.13579 12.9375 1.13579ZM10.1813 2.26875C10.3104 1.62847 10.6553 1.05282 11.1576 0.639346C11.6599 0.225872 12.2887 0 12.9375 0C13.5863 0 14.2151 0.225872 14.7174 0.639346C15.2197 1.05282 15.5646 1.62847 15.6937 2.26875H18V3.4017H15.6937C15.5646 4.04199 15.2197 4.61763 14.7174 5.03111C14.2151 5.44458 13.5863 5.67045 12.9375 5.67045C12.2887 5.67045 11.6599 5.44458 11.1576 5.03111C10.6553 4.61763 10.3104 4.04199 10.1813 3.4017H0V2.26875H10.1813ZM5.0625 6.80057C4.61495 6.80057 4.18573 6.97961 3.86926 7.29832C3.55279 7.61703 3.375 8.04928 3.375 8.5C3.375 8.95072 3.55279 9.38297 3.86926 9.70168C4.18573 10.0204 4.61495 10.1994 5.0625 10.1994C5.51005 10.1994 5.93928 10.0204 6.25574 9.70168C6.57221 9.38297 6.75 8.95072 6.75 8.5C6.75 8.04928 6.57221 7.61703 6.25574 7.29832C5.93928 6.97961 5.51005 6.80057 5.0625 6.80057ZM2.30625 7.93352C2.43535 7.29324 2.78029 6.71759 3.2826 6.30412C3.78492 5.89065 4.41374 5.66477 5.0625 5.66477C5.71126 5.66477 6.34008 5.89065 6.8424 6.30412C7.34471 6.71759 7.68965 7.29324 7.81875 7.93352H18V9.06648H7.81875C7.68965 9.70676 7.34471 10.2824 6.8424 10.6959C6.34008 11.1094 5.71126 11.3352 5.0625 11.3352C4.41374 11.3352 3.78492 11.1094 3.2826 10.6959C2.78029 10.2824 2.43535 9.70676 2.30625 9.06648H0V7.93352H2.30625ZM12.9375 12.4653C12.4899 12.4653 12.0607 12.6444 11.7443 12.9631C11.4278 13.2818 11.25 13.7141 11.25 14.1648C11.25 14.6155 11.4278 15.0477 11.7443 15.3665C12.0607 15.6852 12.4899 15.8642 12.9375 15.8642C13.3851 15.8642 13.8143 15.6852 14.1307 15.3665C14.4472 15.0477 14.625 14.6155 14.625 14.1648C14.625 13.7141 14.4472 13.2818 14.1307 12.9631C13.8143 12.6444 13.3851 12.4653 12.9375 12.4653ZM10.1813 13.5983C10.3104 12.958 10.6553 12.3824 11.1576 11.9689C11.6599 11.5554 12.2887 11.3295 12.9375 11.3295C13.5863 11.3295 14.2151 11.5554 14.7174 11.9689C15.2197 12.3824 15.5646 12.958 15.6937 13.5983H18V14.7313H15.6937C15.5646 15.3715 15.2197 15.9472 14.7174 16.3607C14.2151 16.7741 13.5863 17 12.9375 17C12.2887 17 11.6599 16.7741 11.1576 16.3607C10.6553 15.9472 10.3104 15.3715 10.1813 14.7313H0V13.5983H10.1813Z" fill="white"/>
</svg>
